HIERARCHY
ROOT Hips
{
	OFFSET 0.00 0.00 0.00
	CHANNELS 6 Xposition Yposition Zposition Xrotation Yrotation Zrotation
	JOINT LeftUpLeg
	{
		OFFSET 3.34202 0.00000 0.00000
		CHANNELS 3 Xrotation Yrotation Zrotation
		JOINT LeftLeg
		{
			OFFSET 0.00000 -16.59631 0.00000
			CHANNELS 3 Xrotation Yrotation Zrotation
			JOINT LeftFoot
			{
				OFFSET 0.00000 -16.13662 0.00000
				CHANNELS 3 Xrotation Yrotation Zrotation
				JOINT LeftToeBase
				{
					OFFSET 0.00000 -1.70046 6.34620
					CHANNELS 3 Xrotation Yrotation Zrotation
					End Site
					{
						OFFSET 0.00000 0.00000 2.95275
					}
				}
			}
		}
	}
	JOINT RightUpLeg
	{
		OFFSET -3.34202 0.00000 0.00000
		CHANNELS 3 Xrotation Yrotation Zrotation
		JOINT RightLeg
		{
			OFFSET 0.00000 -16.59631 0.00000
			CHANNELS 3 Xrotation Yrotation Zrotation
			JOINT RightFoot
			{
				OFFSET 0.00000 -16.13662 0.00000
				CHANNELS 3 Xrotation Yrotation Zrotation
				JOINT RightToeBase
				{
					OFFSET 0.00000 -1.70046 6.34620
					CHANNELS 3 Xrotation Yrotation Zrotation
					End Site
					{
						OFFSET 0.00000 0.00000 2.95275
					}
				}
			}
		}
	}
	JOINT Spine
	{
		OFFSET 0.00000 0.03937 0.00000
		CHANNELS 3 Xrotation Yrotation Zrotation
		JOINT Spine1
		{
			OFFSET 0.00000 9.25793 0.00000
			CHANNELS 3 Xrotation Yrotation Zrotation
			JOINT Neck
			{
				OFFSET 0.00000 8.81471 0.00000
				CHANNELS 3 Xrotation Yrotation Zrotation
				JOINT Head
				{
					OFFSET 0.00000 6.89495 0.00000
					CHANNELS 3 Xrotation Yrotation Zrotation
					End Site
					{
						OFFSET 0.00000 4.52755 0.00000
					}
				}
			}
			JOINT LeftShoulder
			{
				OFFSET 0.00000 8.81471 0.00000
				CHANNELS 3 Xrotation Yrotation Zrotation
				JOINT LeftArm
				{
					OFFSET 7.31164 -0.00003 0.00000
					CHANNELS 3 Xrotation Yrotation Zrotation
					JOINT LeftForeArm
					{
						OFFSET 10.81844 -0.00004 0.00000
						CHANNELS 3 Xrotation Yrotation Zrotation
						JOINT LeftHand
						{
							OFFSET 10.19478 -0.00004 0.00000
							CHANNELS 3 Xrotation Yrotation Zrotation
							JOINT LeftHandThumb
							{
								OFFSET 0.00000 0.00000 0.00000
								CHANNELS 3 Xrotation Yrotation Zrotation
								End Site
								{
									OFFSET 0.00000 0.00000 3.93700
								}
							}
							JOINT L_Wrist_End
							{
								OFFSET 3.93700 -0.00001 0.00000
								CHANNELS 3 Xrotation Yrotation Zrotation
							}
						}
					}
				}
			}
			JOINT RightShoulder
			{
				OFFSET 0.00000 8.81471 0.00000
				CHANNELS 3 Xrotation Yrotation Zrotation
				JOINT RightArm
				{
					OFFSET -7.31164 -0.00003 0.00000
					CHANNELS 3 Xrotation Yrotation Zrotation
					JOINT RightForeArm
					{
						OFFSET -10.81844 -0.00004 0.00000
						CHANNELS 3 Xrotation Yrotation Zrotation
						JOINT RightHand
						{
							OFFSET -10.19478 -0.00004 0.00000
							CHANNELS 3 Xrotation Yrotation Zrotation
							JOINT RightHandThumb
							{
								OFFSET 0.00000 0.00000 0.00000
								CHANNELS 3 Xrotation Yrotation Zrotation
								End Site
								{
									OFFSET 0.00000 0.00000 3.93700
								}
							}
							JOINT R_Wrist_End
							{
								OFFSET -5.39369 -0.00002 0.00000
								CHANNELS 3 Xrotation Yrotation Zrotation
							}
						}
					}
				}
			}
		}
	}
}
MOTION
Frames: 17
Frame Time: 0.008333
 19.3059 34.3742 -7.2078 107.1646 80.0692 -109.0607 5.7930 6.6517 -1.5432 7.5794 -0.0000 0.0000 -14.1977 -15.8412 9.1386 -16.6696 -0.0000 -0.0000 -33.2210 0.2212 3.2685 8.6539 0.0000 0.0000 1.1699 -2.5144 6.7583 -17.0216 -0.0000 -0.0000 -4.4167 1.4521 -2.4924 1.1626 -3.8159 0.7680 10.5787 2.8346 0.8592 -4.8742 -6.9376 4.1195 -4.6540 8.6885 10.2563 -0.7589 -20.2356 -85.9602 -0.0001 -31.8045 -0.0000 -1.1634 -3.2177 6.5250 -0.0000 0.0000 -0.0000 -0.0000 0.0000 -0.0000 -8.8719 -7.1380 -7.9189 15.2575 29.4355 83.4702 -0.0001 18.4808 0.0000 12.2684 -2.5974 -3.7611 -0.0000 0.0000 -0.0000 -0.0000 0.0000 -0.0000
 19.6126 34.3446 -7.2390 108.6458 79.8384 -110.4579 5.9520 6.4978 -1.5627 7.9921 0.0000 0.0000 -14.1655 -16.0119 9.2316 -17.0765 0.0000 0.0000 -33.0342 -0.2733 3.1703 7.4214 -0.0000 -0.0000 0.5847 -2.1600 6.5756 -16.9886 -0.0000 -0.0000 -4.4666 1.2415 -2.5174 1.0297 -4.0255 0.8371 10.6301 2.7758 1.0177 -5.0149 -6.8249 3.7961 -4.7221 8.5615 10.3914 -1.1535 -20.7769 -86.4192 -0.0001 -32.5903 -0.0000 -1.1536 -3.3975 6.3075 -0.0000 -0.0000 0.0000 -0.0000 -0.0000 0.0000 -8.6370 -7.2813 -7.9119 15.5109 29.0925 83.6414 -0.0001 17.7435 0.0000 12.8631 -2.7702 -3.4255 0.0000 -0.0000 0.0000 0.0000 -0.0000 0.0000
 19.9508 34.3128 -7.2678 110.0267 79.9617 -111.7415 6.5523 6.5606 -1.5958 8.3161 -0.0000 0.0000 -14.0931 -16.2723 9.3377 -17.4174 0.0000 0.0000 -32.4913 -0.4682 3.1642 6.3817 0.0000 0.0000 -0.2305 -2.0131 6.6010 -17.1153 0.0000 0.0000 -4.4064 1.0635 -2.5897 1.1676 -4.1802 0.9928 10.5564 3.0729 0.9280 -4.9769 -6.9530 3.8554 -4.5796 8.6391 10.4056 -1.7672 -21.4274 -86.7549 -0.0001 -33.4815 -0.0000 -1.2139 -3.4838 6.1179 0.0000 -0.0000 -0.0000 0.0000 -0.0000 -0.0000 -8.4262 -7.3154 -7.9235 15.7884 28.6533 83.7868 -0.0001 17.1334 0.0000 13.1597 -2.9968 -3.2258 -0.0000 0.0000 -0.0000 -0.0000 0.0000 -0.0000
 20.2758 34.2837 -7.2968 111.3393 79.7129 -112.9676 6.6578 6.4673 -1.5811 8.8543 -0.0000 0.0000 -14.0518 -16.5282 9.3358 -17.7840 0.0000 -0.0000 -32.3935 -0.5627 3.0831 5.7147 0.0000 0.0000 -1.2575 -2.0631 6.3767 -17.1516 0.0000 0.0000 -4.4964 0.9008 -2.6055 1.0292 -4.3483 1.0408 10.6138 3.0369 1.0169 -5.0984 -6.8937 3.7046 -4.6517 8.4289 10.5245 -2.0081 -21.8822 -87.1076 -0.0001 -34.4201 -0.0000 -1.7067 -3.7048 6.2514 0.0000 -0.0000 0.0000 0.0000 -0.0000 0.0000 -8.2850 -7.5981 -7.9624 16.1029 28.5681 83.9055 -0.0001 16.3749 0.0000 13.1855 -3.1099 -3.1250 -0.0000 -0.0000 0.0000 -0.0000 -0.0000 0.0000
 20.6118 34.2548 -7.3329 112.9393 79.6059 -114.4408 6.8922 6.2470 -1.6083 9.4902 0.0000 0.0000 -13.9684 -16.6761 9.5080 -18.2974 0.0000 0.0000 -32.2129 -0.5781 2.9490 5.4828 -0.0000 -0.0000 -2.4856 -2.1680 6.3838 -17.1241 -0.0000 -0.0000 -4.5381 0.6859 -2.6344 1.0538 -4.5611 1.1177 10.6859 3.1540 0.9886 -5.3537 -6.8868 3.6140 -4.7486 8.3770 10.5868 -2.2942 -22.4484 -87.4050 -0.0001 -35.3093 -0.0000 -1.7651 -3.7041 6.3029 0.0000 0.0000 -0.0000 0.0000 0.0000 -0.0000 -8.1145 -7.6701 -7.9961 16.4422 28.2689 84.0101 -0.0001 15.8060 0.0000 13.3075 -3.2539 -3.0752 -0.0000 -0.0000 -0.0000 -0.0000 -0.0000 -0.0000
 20.9650 34.2255 -7.3657 113.5333 79.6517 -114.9328 7.2976 6.2828 -1.6421 10.0106 0.0000 -0.0000 -13.7942 -16.8976 9.6806 -18.8068 0.0000 -0.0000 -32.0604 -0.4872 2.9335 5.6902 -0.0000 0.0000 -3.6170 -2.2218 6.4781 -17.1284 0.0000 0.0000 -4.5572 0.6108 -2.6749 1.0987 -4.6266 1.2375 10.6351 3.2365 1.0095 -5.3866 -6.8997 3.4746 -4.7923 8.2972 10.6810 -2.6387 -22.9394 -87.7613 -0.0002 -36.1324 -0.0001 -1.6934 -3.7455 6.3014 -0.0000 0.0000 -0.0000 -0.0000 0.0000 -0.0000 -7.9979 -7.8192 -8.0650 16.8118 27.9499 84.1079 -0.0001 15.2434 0.0000 13.3720 -3.4256 -2.9443 -0.0000 0.0000 0.0000 -0.0000 0.0000 0.0000
 21.3052 34.1969 -7.3918 114.3304 79.5083 -115.6715 7.3921 6.2133 -1.5758 10.7547 0.0000 -0.0000 -13.6976 -17.1906 9.6967 -19.2361 -0.0000 -0.0000 -32.1578 -0.5349 2.8937 6.2505 0.0000 0.0000 -4.4147 -2.2871 6.7263 -17.2162 -0.0000 -0.0000 -4.5979 0.4688 -2.6585 1.0019 -4.7728 1.2969 10.5304 3.3029 1.0098 -5.3293 -6.8365 3.4527 -4.8432 8.1942 10.8152 -2.8480 -23.2741 -88.0636 -0.0002 -37.0922 -0.0001 -1.6284 -3.6791 6.1617 0.0000 0.0000 -0.0000 0.0000 0.0000 -0.0000 -7.8655 -8.0359 -8.1113 17.1081 27.8202 84.1879 -0.0001 14.5934 0.0000 13.3995 -3.4430 -2.8859 -0.0000 -0.0000 -0.0000 -0.0000 -0.0000 -0.0000
 21.6768 34.1691 -7.4165 115.1104 79.6923 -116.4875 7.8541 6.3173 -1.4270 11.4656 0.0000 0.0000 -13.5284 -17.4124 9.8208 -19.7760 0.0000 0.0000 -31.9031 -0.6191 3.0006 6.9456 0.0000 0.0000 -4.9712 -2.2183 6.5830 -17.0922 0.0000 0.0000 -4.5259 0.3731 -2.6087 1.0841 -4.8584 1.5025 10.5525 3.5408 0.9045 -5.5239 -6.9280 3.4432 -4.8822 8.1486 10.8523 -3.0323 -23.6662 -88.3050 -0.0002 -38.0456 -0.0001 -1.6514 -3.5507 6.1698 -0.0000 0.0000 0.0000 -0.0000 0.0000 0.0000 -7.7556 -8.0498 -8.1614 17.5575 27.2631 84.2284 -0.0001 14.1848 0.0000 13.6569 -3.6027 -2.6939 -0.0000 -0.0000 -0.0000 -0.0000 -0.0000 -0.0000
 22.0415 34.1422 -7.4442 115.4468 79.5676 -116.7925 7.9295 6.1559 -1.3556 12.2770 -0.0000 0.0000 -13.3211 -17.5114 10.0259 -20.3110 -0.0000 0.0000 -31.9805 -0.6089 2.9953 7.7762 0.0000 -0.0000 -5.2732 -2.2071 6.3174 -17.1844 -0.0000 0.0000 -4.6261 0.2519 -2.5583 0.9667 -4.9943 1.5738 10.4864 3.5392 0.9783 -5.4993 -6.7973 3.1969 -4.9082 8.1078 10.9675 -3.1498 -23.9587 -88.5499 -0.0002 -38.9593 -0.0001 -1.6358 -3.5391 6.0771 0.0000 0.0000 0.0000 0.0000 0.0000 0.0000 -7.6086 -8.2261 -8.2243 17.8778 27.2333 84.2538 -0.0001 13.5976 0.0000 13.1585 -3.6872 -2.8683 0.0000 0.0000 0.0000 0.0000 0.0000 0.0000
 22.4251 34.1144 -7.4664 115.2963 79.8030 -116.7349 8.3114 6.3977 -1.1727 13.1307 -0.0000 0.0000 -13.0857 -17.7762 10.2267 -20.9663 0.0000 -0.0000 -31.7245 -0.3620 3.2296 8.6626 0.0000 0.0000 -5.4748 -2.2828 5.6068 -17.1738 0.0000 0.0000 -4.6203 0.2539 -2.4397 1.0727 -5.0030 1.7576 10.4948 3.7479 0.8650 -5.6783 -6.8547 3.2150 -4.9324 7.9862 11.0402 -3.1936 -24.1838 -88.7486 -0.0002 -39.9521 -0.0001 -0.8476 -3.4069 6.0711 0.0000 -0.0000 -0.0000 0.0000 -0.0000 -0.0000 -7.4596 -8.2407 -8.2804 18.2548 26.3114 84.2787 -0.0001 13.4144 0.0000 14.1557 -4.2154 -1.8532 -0.0000 -0.0000 0.0000 -0.0000 -0.0000 0.0000
 22.8202 34.0855 -7.4832 115.2659 79.9861 -116.8661 8.6197 6.5520 -0.8986 14.0509 0.0000 0.0000 -12.8338 -17.9607 10.3794 -21.7060 -0.0000 -0.0000 -31.4316 -0.1543 3.5064 9.5646 -0.0000 0.0000 -5.6524 -2.4479 5.2732 -17.3250 0.0000 0.0000 -4.6252 0.1765 -2.2639 1.1162 -5.1016 1.9364 10.4541 3.9541 0.8154 -5.7541 -6.8033 3.0907 -4.9448 8.0445 11.1317 -3.2161 -24.3906 -88.9298 -0.0002 -40.8987 -0.0001 -0.8015 -3.3674 5.9998 0.0000 0.0000 -0.0000 0.0000 0.0000 -0.0000 -7.4702 -8.2732 -8.4214 18.6636 26.1356 84.3112 -0.0000 12.9332 0.0000 14.3465 -4.3777 -1.4607 0.0000 0.0000 -0.0000 0.0000 0.0000 -0.0000
 23.2053 34.0571 -7.5120 115.0092 79.9785 -116.6535 8.6416 6.4211 -0.7821 15.1392 -0.0000 0.0000 -12.5380 -17.9164 10.6732 -22.3744 -0.0000 -0.0000 -31.3212 0.2039 3.6336 10.4956 -0.0000 0.0000 -5.7791 -2.9020 5.4356 -17.4263 -0.0000 0.0000 -4.7488 0.0688 -2.1434 1.0572 -5.2353 2.0458 10.4861 4.0530 0.8495 -5.9101 -6.6233 2.8273 -4.9034 8.0549 11.2099 -3.1873 -24.5089 -89.0718 -0.0002 -41.8307 -0.0001 -0.8352 -3.4426 5.9663 -0.0000 0.0000 0.0000 -0.0000 0.0000 0.0000 -7.3799 -8.2955 -8.5308 18.9565 26.7159 84.3546 -0.0000 12.0994 0.0000 13.8200 -3.9375 -2.3536 0.0000 0.0000 0.0000 0.0000 0.0000 0.0000
 23.6156 34.0269 -7.5296 115.2998 80.0589 -117.1153 8.7554 6.6213 -0.4440 16.3037 0.0000 -0.0000 -12.2650 -18.3061 10.6644 -23.1243 -0.0000 -0.0000 -30.9022 0.4302 3.8970 11.1925 -0.0000 0.0000 -5.9666 -3.5318 5.5615 -17.5322 -0.0000 -0.0000 -4.8487 -0.0354 -1.9528 1.0977 -5.3738 2.2362 10.4484 4.2667 0.7400 -5.9556 -6.5887 2.7778 -4.9283 8.0383 11.2663 -2.9764 -24.6676 -89.1363 -0.0002 -42.8966 -0.0001 -0.8773 -3.3005 6.0110 0.0000 -0.0000 -0.0000 0.0000 -0.0000 -0.0000 -7.2781 -8.2674 -8.6328 19.3344 26.2670 84.3848 -0.0000 11.7524 0.0000 13.9820 -4.0616 -2.2173 0.0000 -0.0000 -0.0000 0.0000 -0.0000 -0.0000
 24.0205 33.9937 -7.5570 115.3949 80.0088 -117.2704 8.6616 6.5066 -0.2547 17.6004 -0.0000 0.0000 -11.8765 -18.4200 10.7471 -23.9416 -0.0000 -0.0000 -30.5757 0.7934 4.0494 11.7546 0.0000 0.0000 -6.2577 -4.3148 5.0969 -17.5402 0.0000 0.0000 -5.0158 -0.1559 -1.8294 1.0268 -5.5235 2.3668 10.4949 4.3302 0.7953 -6.1100 -6.4041 2.4714 -4.8450 7.9965 11.3559 -2.8797 -24.7398 -89.2626 -0.0002 -43.7730 -0.0001 -0.9150 -3.4102 6.0511 0.0000 -0.0000 -0.0000 0.0000 -0.0000 -0.0000 -7.2869 -8.3576 -8.7936 19.7321 26.3280 84.3440 -0.0000 11.3003 0.0000 13.5151 -4.1746 -2.2279 -0.0000 0.0000 0.0000 -0.0000 0.0000 0.0000
 24.4394 33.9584 -7.5718 115.8063 79.9622 -117.8594 8.5017 6.6813 0.1547 19.0710 -0.0000 0.0000 -11.4939 -18.9129 10.7088 -24.7947 -0.0000 -0.0000 -30.0575 0.7522 4.3315 11.9692 0.0000 -0.0000 -6.0660 -4.8704 4.5942 -17.7582 -0.0000 -0.0000 -5.1722 -0.2893 -1.6532 0.9697 -5.6917 2.5709 10.4018 4.5138 0.7060 -5.9954 -6.3326 2.4226 -4.8808 8.0388 11.4260 -2.6795 -24.9333 -89.3285 -0.0002 -44.6255 -0.0001 -1.0253 -3.3308 6.0479 0.0000 0.0000 -0.0000 0.0000 0.0000 -0.0000 -7.2195 -8.3049 -8.8902 20.2089 25.8076 84.3030 -0.0000 11.0748 0.0000 13.5668 -4.2852 -2.1318 -0.0000 0.0000 0.0000 -0.0000 0.0000 0.0000
 24.8577 33.9213 -7.5906 116.2329 79.8679 -118.4143 8.2243 6.6956 0.5234 20.6720 -0.0000 0.0000 -10.9887 -19.2704 10.6029 -25.6734 -0.0000 0.0000 -29.4921 0.8357 4.5604 11.8435 -0.0000 0.0000 -5.2445 -5.4695 4.4455 -17.8852 0.0000 -0.0000 -5.3181 -0.4226 -1.4969 0.8254 -5.8558 2.7270 10.3864 4.6030 0.7163 -6.0028 -6.2052 2.2250 -4.8765 8.0439 11.5132 -2.4600 -25.0892 -89.3928 -0.0002 -45.4235 -0.0001 -1.0843 -3.3704 6.0569 -0.0000 -0.0000 0.0000 -0.0000 -0.0000 0.0000 -7.2101 -8.3375 -9.0057 20.7166 25.5216 84.2143 -0.0000 10.8416 0.0000 13.6546 -4.4539 -1.9300 -0.0000 0.0000 -0.0000 -0.0000 0.0000 -0.0000
 25.2704 33.8824 -7.6176 116.5355 79.7222 -118.7563 7.8048 6.5611 0.7820 22.4012 -0.0000 0.0000 -10.3997 -19.6684 10.5685 -26.7191 0.0000 0.0000 -28.9618 1.1647 4.6487 11.5318 0.0000 0.0000 -3.6780 -5.8969 4.8597 -17.5479 0.0000 -0.0000 -5.4423 -0.5090 -1.3673 0.5870 -5.9658 2.8297 10.2721 4.6785 0.6867 -5.8498 -6.1414 2.0990 -4.8738 8.0382 11.5642 -2.2351 -25.4042 -89.3810 -0.0002 -46.1645 -0.0001 -1.1705 -3.4550 6.0956 -0.0000 0.0000 -0.0000 -0.0000 0.0000 -0.0000 -7.1666 -8.4991 -9.1342 21.2070 25.1114 84.0816 -0.0000 10.7674 0.0000 13.9275 -4.8018 -1.4505 -0.0000 -0.0000 0.0000 -0.0000 -0.0000 0.0000
